<svg width="164" height="33" viewBox="0 0 164 33" fill="none" xmlns="http://www.w3.org/2000/svg">
<g clip-path="url(#clip0_47_1484)">
<path d="M61.8121 28.6857L46.85 10.1796C45.3033 10.7532 43.8201 11.2215 42.3368 11.6897C40.5387 7.29526 37.0613 3.00887 33.1475 -0.00020251C33.1364 -0.0805552 24.273 9.94413 21.9086 12.4545C21.1104 11.7507 20.221 11.1577 19.2267 10.7892C13.1529 17.0955 6.73942 22.9668 0 28.4363C0.113244 29.1429 0.223727 29.8466 0.336971 30.5532C0.450216 31.2708 0.566222 31.9885 0.679466 32.7089C7.5708 32.6285 16.495 29.5336 22.0827 29.4671C22.6295 29.4615 23.6681 29.6167 24.4276 29.8245L21.9418 32.429L24.4939 32.1076C26.5268 31.0907 28.3415 30.1431 30.5981 29.1706L29.9601 31.5756C30.7776 31.0824 31.3632 30.6862 32.1393 30.556C32.1504 30.556 32.1614 30.556 32.1725 30.556L31.8742 32.3764L33.4568 32.4401L34.2992 32.9998L35.8211 32.5426C35.2052 31.8776 34.65 31.3207 34.128 30.5754C47.9383 30.7582 55.2218 32.0439 55.2218 32.0439L61.8149 28.6912L61.8121 28.6857ZM18.1329 19.29C18.028 19.0434 14.8709 21.864 14.8709 21.864C14.5726 24.1555 14.3958 26.4608 14.3434 28.7716C13.1971 27.5358 12.258 26.0978 11.4846 24.5794C9.8716 25.6046 8.31656 26.724 6.83333 27.932C5.65393 27.993 4.49663 28.1676 3.36419 28.4502C8.68944 23.9864 13.744 19.1958 18.4892 14.1142C19.6023 14.4162 20.3343 15.53 20.9613 16.558C21.2817 17.0844 21.6131 17.6524 21.591 18.2703C21.5772 18.6749 21.4087 19.0545 21.2734 19.4368C20.8287 20.7003 21.4308 21.2351 21.6987 22.5456C23.8089 20.8001 24.8641 19.6917 26.3638 17.561C25.3585 16.5358 24.5381 15.3749 23.6405 14.2804L33.3795 2.7207L34.7992 8.71113L30.3357 14.6572L33.8656 12.7565L32.3106 17.2756L25.7783 25.1142L32.3271 21.4041L30.9765 24.3494L23.9691 28.7633C21.3038 25.9759 19.2598 22.9807 18.1329 19.2872V19.29ZM45.5933 22.8587C45.3281 21.0993 45.063 19.3398 44.7978 17.5804C44.0521 20.8499 42.2374 23.8645 39.6991 26.0479C39.3041 25.2222 38.9588 24.3134 38.7379 23.3741C37.9921 24.862 37.2436 26.3499 36.4978 27.8351C34.7577 28.3587 32.9596 28.7993 31.1367 29.1512L38.6771 19.6197L39.0086 21.4346L42.3948 14.2721L46.1291 12.9116L47.5792 19.2429C47.5792 19.2429 47.5792 19.2678 47.5792 19.2817C49.2337 20.9524 50.5816 22.9225 51.54 25.0698C49.7419 23.9671 47.7008 23.2411 45.5961 22.856L45.5933 22.8587Z" fill="#003720"/>
<path d="M70.67 3.83753V3.9733C70.6535 4.02595 70.6424 4.11738 70.6424 4.24207C70.6424 4.43879 70.6977 4.66322 70.8026 4.91537C70.9103 5.16751 71.0346 5.40856 71.1783 5.64408C71.3219 5.8796 71.4655 6.09849 71.6091 6.30353C71.7528 6.51134 71.8688 6.67758 71.9572 6.80227L77.0891 14.1338V9.6063C77.0891 8.31234 77.0228 7.16247 76.8874 6.15668C76.7521 5.15088 76.4704 4.42217 76.0422 3.9733V3.83753H82.975V3.9733C82.5441 4.42217 82.2624 5.15088 82.1298 6.15668C81.9945 7.16247 81.9282 8.31234 81.9282 9.6063V16.9378C81.9282 18.2317 81.9945 19.3816 82.1298 20.3874C82.2652 21.3932 82.5469 22.1219 82.975 22.5708V22.7065H76.5007V22.5708C76.5173 22.5181 76.5284 22.4267 76.5284 22.302C76.5284 22.1053 76.4731 21.8809 76.3682 21.6287C76.2604 21.3766 76.1362 21.1355 75.9925 20.9C75.8489 20.6673 75.6997 20.4456 75.5478 20.2406C75.3959 20.0327 75.2827 19.8665 75.2109 19.7418L70.0541 12.3577V16.9406C70.0541 18.2345 70.1204 19.3844 70.2557 20.3902C70.3911 21.396 70.6728 22.1247 71.1009 22.5736V22.7093H64.1682V22.5736C64.599 22.1247 64.8808 21.396 65.0133 20.3902C65.1487 19.3844 65.215 18.2345 65.215 16.9406V9.60907C65.215 8.31511 65.1487 7.16524 65.0133 6.15945C64.878 5.15365 64.5963 4.42494 64.1682 3.97607V3.8403H70.67V3.83753Z" fill="#003720"/>
<path d="M91.786 3.83753V3.9733C91.3551 4.42217 91.0734 5.15088 90.9408 6.15668C90.8054 7.16247 90.7392 8.31234 90.7392 9.6063V16.9378C90.7392 18.2317 90.8054 19.3816 90.9408 20.3874C91.0761 21.3932 91.3579 22.1219 91.786 22.5708V22.7065H84.856V22.5708C85.2869 22.1219 85.5686 21.3932 85.7012 20.3874C85.8365 19.3816 85.9028 18.2317 85.9028 16.9378V9.6063C85.9028 8.31234 85.8365 7.16247 85.7012 6.15668C85.5658 5.15088 85.2841 4.42217 84.856 3.9733V3.83753H91.786Z" fill="#003720"/>
<path d="M107.905 12.596L103.632 19.038L99.3872 12.596L99.227 19.038C99.191 19.8998 99.2352 20.634 99.3623 21.2353C99.4866 21.8365 99.6744 22.2826 99.9258 22.568V22.7038H93.6669V22.568C93.9183 22.2799 94.0923 21.8365 94.1917 21.2353C94.2912 20.634 94.3574 19.8998 94.3934 19.038L94.6364 9.30983C94.653 9.0937 94.664 8.88313 94.664 8.67532V8.04081C94.664 7.25114 94.606 6.53073 94.49 5.88514C94.374 5.23955 94.1089 4.5995 93.6973 3.97053V3.83476H98.8541L103.635 10.9501L108.444 3.83476H113.601V3.97053C113.189 4.5995 112.924 5.24232 112.808 5.89899C112.692 6.55567 112.634 7.27053 112.634 8.04081V8.67532C112.634 8.88313 112.642 9.0937 112.662 9.30983L112.905 19.038C112.941 19.8998 113.007 20.634 113.106 21.2353C113.206 21.8365 113.38 22.2826 113.631 22.568V22.7038H107.372V22.568C107.624 22.2799 107.811 21.8365 107.936 21.2353C108.06 20.634 108.107 19.8998 108.071 19.038L107.911 12.596H107.905Z" fill="#003720"/>
<path d="M121.796 19.5229C121.652 19.9358 121.55 20.2877 121.486 20.573C121.423 20.8612 121.392 21.1217 121.392 21.3544C121.392 21.6786 121.434 21.9335 121.514 22.1219C121.594 22.3103 121.68 22.46 121.768 22.5652V22.701H114.703V22.5652C115.275 21.9363 115.783 21.1632 116.222 20.2461C116.661 19.329 117.031 18.4673 117.338 17.6582L121.691 6.60831C121.87 6.14005 121.981 5.79647 122.028 5.57204C122.072 5.34761 122.094 5.19799 122.094 5.12595C122.094 4.82116 122.053 4.57733 121.973 4.39723C121.892 4.21713 121.807 4.07305 121.718 3.96499V3.82922H128.005L133.432 17.6554C133.736 18.4645 134.109 19.3262 134.548 20.2433C134.987 21.1605 135.493 21.9335 136.067 22.5625V22.6982H129.002V22.5625C129.09 22.4544 129.176 22.3076 129.256 22.1191C129.336 21.9307 129.378 21.673 129.378 21.3516C129.378 21.1189 129.347 20.8529 129.284 20.5564C129.22 20.26 129.11 19.9136 128.947 19.5174L128.599 18.628L121.829 19.4647L121.801 19.5174L121.796 19.5229ZM125.37 10.4403L123.273 15.8295L127.303 15.3169L125.37 10.4403Z" fill="#003720"/>
<path d="M145.276 3.83753C146.745 3.83753 148.082 4.03426 149.292 4.43048C150.502 4.8267 151.543 5.41411 152.421 6.19547C153.3 6.97683 153.979 7.96045 154.463 9.14635C154.946 10.3322 155.189 11.7065 155.189 13.2693C155.189 14.832 154.946 16.2063 154.463 17.3922C153.979 18.5781 153.297 19.5617 152.421 20.3431C151.543 21.1244 150.502 21.7146 149.292 22.1081C148.082 22.5043 146.743 22.701 145.276 22.701H137.136V22.5652C137.567 22.1164 137.849 21.3877 137.981 20.3819C138.117 19.3761 138.183 18.2262 138.183 16.9322V9.60076C138.183 8.3068 138.117 7.15693 137.981 6.15113C137.846 5.14534 137.564 4.41662 137.136 3.96776V3.83199H145.276V3.83753ZM144.845 18.7139C146.511 18.7139 147.817 18.2511 148.767 17.3257C149.717 16.4003 150.192 15.0481 150.192 13.2693C150.192 11.4904 149.717 10.1383 148.767 9.21285C147.817 8.28741 146.511 7.82468 144.845 7.82468C144.577 7.82468 144.262 7.83023 143.906 7.83854C143.547 7.84685 143.251 7.86902 143.019 7.90504V18.6307C143.271 18.6667 143.569 18.6889 143.92 18.6972C144.268 18.7055 144.577 18.7111 144.848 18.7111L144.845 18.7139Z" fill="#003720"/>
<path d="M164 3.83753V3.9733C163.569 4.42217 163.287 5.15088 163.155 6.15668C163.019 7.16247 162.953 8.31234 162.953 9.6063V16.9378C162.953 18.2317 163.019 19.3816 163.155 20.3874C163.29 21.3932 163.572 22.1219 164 22.5708V22.7065H157.07V22.5708C157.501 22.1219 157.783 21.3932 157.915 20.3874C158.051 19.3816 158.117 18.2317 158.117 16.9378V9.6063C158.117 8.31234 158.051 7.16247 157.915 6.15668C157.78 5.15088 157.498 4.42217 157.07 3.9733V3.83753H164Z" fill="#003720"/>
<path d="M74.2994 29.2373V31.3403H73.1227V25.9539H76.5422V27.0456H74.2994V28.1733H76.1859V29.2373H74.2994Z" fill="#003720"/>
<path d="M91.0457 31.3403L92.9626 25.9539H94.1089L96.0175 31.3403H94.769L94.3906 30.2043H92.656L92.2721 31.3403H91.0457ZM92.9985 29.2151H94.0592L93.6752 28.0652C93.6172 27.8824 93.5509 27.6718 93.5288 27.5416C93.5067 27.6662 93.4487 27.8685 93.3824 28.0652L92.9985 29.2151Z" fill="#003720"/>
<path d="M111.159 31.3403V25.9539H113.233C114.54 25.9539 115.28 26.5884 115.28 27.7023C115.28 28.4005 114.982 28.8965 114.388 29.2013L115.333 31.3403H114.048L113.242 29.4534H112.336V31.3403H111.159ZM112.336 28.4199H113.228C113.744 28.4199 114.04 28.1567 114.04 27.6995C114.04 27.2423 113.755 27.0013 113.233 27.0013H112.333V28.4199H112.336Z" fill="#003720"/>
<path d="M130.673 31.3403V25.9539H131.811L133.407 29.9715L135.012 25.9539H136.167V31.3403H135.029V30.2126C135.029 29.0489 135.029 28.794 135.087 28.3922L133.946 31.3403H132.872L131.739 28.3922C131.805 28.794 131.811 29.2428 131.811 29.833V31.3403H130.673Z" fill="#003720"/>
<path d="M153.421 25.8514C154.576 25.8514 155.302 26.4914 155.302 27.5111H154.134C154.134 27.1315 153.852 26.8987 153.407 26.8987C152.93 26.8987 152.623 27.1176 152.623 27.4751C152.623 27.802 152.789 27.9627 153.167 28.0431L153.974 28.2093C154.932 28.406 155.388 28.866 155.388 29.7166C155.388 30.7584 154.576 31.4345 153.341 31.4345C152.107 31.4345 151.366 30.7861 151.366 29.7748H152.535C152.535 30.1683 152.825 30.3872 153.347 30.3872C153.869 30.3872 154.211 30.1766 154.211 29.833C154.211 29.5338 154.073 29.3814 153.717 29.3093L152.897 29.1431C151.938 28.9463 151.446 28.4005 151.446 27.5194C151.446 26.5441 152.267 25.8514 153.421 25.8514Z" fill="#003720"/>
</g>
<defs>
<clipPath id="clip0_47_1484">
<rect width="164" height="33" fill="white"/>
</clipPath>
</defs>
</svg>
